<?xml version="1.0" encoding="UTF-8"?>
<svg xmlns="http://www.w3.org/2000/svg" xmlns:xlink="http://www.w3.org/1999/xlink" width="24px" height="24px" viewBox="0 0 24 24" version="1.1">
<g id="surface1">
<path style=" stroke:none;fill-rule:nonzero;fill:rgb(98.823529%,81.960785%,8.235294%);fill-opacity:1;" d="M 12.769531 0.1875 C 14.140625 0.773438 15.351562 1.722656 16.511719 2.636719 C 16.609375 2.710938 16.707031 2.789062 16.808594 2.867188 C 19.363281 4.90625 21.382812 7.394531 22.273438 10.542969 C 22.292969 10.613281 22.316406 10.6875 22.339844 10.765625 C 22.933594 12.929688 22.414062 15.324219 21.320312 17.242188 C 21.113281 17.578125 20.863281 17.878906 20.597656 18.171875 C 20.429688 18.355469 20.429688 18.355469 20.351562 18.636719 C 20.394531 18.671875 20.4375 18.707031 20.480469 18.742188 C 21.03125 19.207031 21.550781 19.695312 22.066406 20.199219 C 22.207031 20.335938 22.351562 20.472656 22.492188 20.609375 C 22.585938 20.699219 22.675781 20.789062 22.769531 20.878906 C 22.851562 20.960938 22.933594 21.039062 23.019531 21.121094 C 23.421875 21.582031 23.570312 21.980469 23.546875 22.578125 C 23.488281 23.003906 23.257812 23.234375 22.945312 23.507812 C 22.558594 23.789062 22.289062 23.824219 21.8125 23.84375 C 21.152344 23.746094 20.75 23.292969 20.3125 22.839844 C 20.175781 22.703125 20.039062 22.566406 19.90625 22.429688 C 19.691406 22.214844 19.480469 22 19.269531 21.78125 C 19.0625 21.574219 18.859375 21.363281 18.652344 21.15625 C 18.585938 21.09375 18.523438 21.027344 18.460938 20.957031 C 18.296875 20.796875 18.144531 20.648438 17.953125 20.519531 C 17.6875 20.5 17.6875 20.5 17.472656 20.613281 C 17.382812 20.644531 17.292969 20.679688 17.199219 20.714844 C 17.050781 20.773438 17.050781 20.773438 16.902344 20.835938 C 14.6875 21.667969 12.3125 21.585938 10.140625 20.675781 C 9.074219 20.203125 8.183594 19.566406 7.296875 18.824219 C 7.273438 18.894531 7.246094 18.96875 7.222656 19.042969 C 7.089844 19.320312 7.003906 19.398438 6.738281 19.546875 C 6.675781 19.585938 6.609375 19.621094 6.542969 19.660156 C 6.335938 19.765625 6.335938 19.765625 6.101562 19.839844 C 5.816406 19.972656 5.738281 20.070312 5.582031 20.332031 C 5.535156 20.410156 5.488281 20.484375 5.4375 20.5625 C 5.390625 20.644531 5.339844 20.722656 5.292969 20.804688 C 5.191406 20.96875 5.085938 21.132812 4.984375 21.296875 C 4.9375 21.375 4.886719 21.453125 4.835938 21.53125 C 4.269531 22.425781 3.503906 23.304688 2.496094 23.71875 C 2 23.792969 1.507812 23.789062 1.054688 23.558594 C 0.691406 23.285156 0.507812 23.054688 0.4375 22.605469 C 0.4375 21.625 0.671875 21.148438 1.363281 20.445312 C 2.1875 19.644531 3.167969 19.015625 4.15625 18.421875 C 4.515625 18.195312 4.652344 17.957031 4.820312 17.578125 C 4.929688 17.335938 5.035156 17.242188 5.28125 17.128906 C 5.410156 17.113281 5.542969 17.097656 5.675781 17.089844 C 5.796875 17.070312 5.921875 17.054688 6.046875 17.035156 C 6.160156 16.851562 6.160156 16.851562 6.238281 16.660156 C 6.65625 16.53125 6.910156 16.5625 7.296875 16.753906 C 7.484375 16.566406 7.675781 16.378906 7.871094 16.1875 C 8.1875 16.324219 8.417969 16.503906 8.675781 16.722656 C 10.183594 17.917969 12.015625 18.296875 13.921875 18.164062 C 14.375 18.101562 14.820312 18 15.265625 17.882812 C 14.796875 17.332031 14.292969 16.824219 13.773438 16.320312 C 13.640625 16.191406 13.507812 16.0625 13.375 15.929688 C 13.09375 15.660156 12.816406 15.386719 12.539062 15.117188 C 12.308594 14.890625 12.078125 14.667969 11.847656 14.445312 C 11.675781 14.277344 11.503906 14.109375 11.332031 13.941406 C 10.917969 13.535156 10.519531 13.125 10.136719 12.6875 C 9.90625 12.429688 9.664062 12.191406 9.414062 11.949219 C 9.363281 11.902344 9.3125 11.851562 9.261719 11.800781 C 9.105469 11.648438 8.949219 11.496094 8.789062 11.339844 C 8.683594 11.234375 8.574219 11.128906 8.464844 11.023438 C 8.203125 10.769531 7.941406 10.515625 7.679688 10.257812 C 7.308594 10.40625 7.078125 10.640625 6.796875 10.917969 C 6.726562 10.988281 6.726562 10.988281 6.65625 11.058594 C 6.507812 11.203125 6.363281 11.347656 6.214844 11.492188 C 6.117188 11.59375 6.015625 11.691406 5.914062 11.789062 C 5.671875 12.03125 5.425781 12.273438 5.183594 12.519531 C 4.773438 12.363281 4.5 12.058594 4.195312 11.753906 C 4.136719 11.699219 4.082031 11.644531 4.023438 11.585938 C 3.839844 11.40625 3.660156 11.226562 3.480469 11.046875 C 3.355469 10.925781 3.234375 10.804688 3.109375 10.683594 C 2.808594 10.386719 2.507812 10.085938 2.207031 9.789062 C 2.339844 9.496094 2.496094 9.292969 2.726562 9.070312 C 2.792969 9.003906 2.859375 8.941406 2.925781 8.875 C 3.027344 8.777344 3.027344 8.777344 3.132812 8.675781 C 3.199219 8.613281 3.265625 8.546875 3.332031 8.480469 C 3.71875 8.105469 4.113281 7.75 4.523438 7.402344 C 4.789062 7.171875 5.035156 6.929688 5.28125 6.683594 C 5.652344 6.3125 6.03125 5.957031 6.441406 5.621094 C 6.636719 5.453125 6.636719 5.453125 6.832031 5.230469 C 6.902344 5.152344 6.976562 5.074219 7.050781 4.992188 C 7.113281 4.921875 7.175781 4.847656 7.242188 4.773438 C 7.808594 4.402344 8.710938 4.640625 9.359375 4.714844 C 9.453125 4.726562 9.546875 4.734375 9.640625 4.746094 C 9.933594 4.78125 10.226562 4.8125 10.519531 4.847656 C 10.71875 4.871094 10.917969 4.890625 11.117188 4.914062 C 11.601562 4.96875 12.089844 5.027344 12.574219 5.082031 C 12.453125 5.347656 12.324219 5.539062 12.117188 5.742188 C 12.0625 5.796875 12.007812 5.847656 11.953125 5.902344 C 11.894531 5.957031 11.835938 6.015625 11.777344 6.070312 C 11.71875 6.128906 11.660156 6.1875 11.597656 6.246094 C 11.40625 6.433594 11.21875 6.617188 11.027344 6.800781 C 10.898438 6.925781 10.769531 7.050781 10.640625 7.175781 C 10.328125 7.480469 10.011719 7.789062 9.695312 8.09375 C 9.835938 8.40625 10.011719 8.613281 10.257812 8.855469 C 10.332031 8.925781 10.40625 9 10.480469 9.074219 C 10.558594 9.148438 10.636719 9.222656 10.714844 9.300781 C 10.792969 9.375 10.867188 9.445312 10.945312 9.523438 C 11.269531 9.839844 11.597656 10.152344 11.949219 10.441406 C 12.546875 10.953125 13.097656 11.511719 13.65625 12.0625 C 13.777344 12.179688 13.898438 12.300781 14.019531 12.417969 C 14.339844 12.730469 14.65625 13.042969 14.972656 13.355469 C 15.296875 13.675781 15.625 13.996094 15.949219 14.3125 C 16.585938 14.9375 17.21875 15.5625 17.855469 16.1875 C 18.894531 15.195312 19.222656 13.894531 19.242188 12.507812 C 19.207031 8.238281 16.253906 4.367188 13.535156 1.269531 C 13.488281 1.214844 13.4375 1.160156 13.386719 1.101562 C 13.292969 0.992188 13.195312 0.882812 13.097656 0.773438 C 12.769531 0.398438 12.769531 0.398438 12.769531 0.1875 Z M 12.769531 0.1875 "/>
</g>
</svg>
